<?xml version="1.0" encoding="UTF-8" standalone="no"?>
<!-- Created with Inkscape (http://www.inkscape.org/) -->

<svg
   version="1.1"
   id="svg1"
   width="180"
   height="180"
   viewBox="0 0 180 180"
   sodipodi:docname="dir_acceleration.svg"
   inkscape:version="1.3.2 (091e20e, 2023-11-25, custom)"
   xmlns:inkscape="http://www.inkscape.org/namespaces/inkscape"
   xmlns:sodipodi="http://sodipodi.sourceforge.net/DTD/sodipodi-0.dtd"
   xmlns="http://www.w3.org/2000/svg"
   xmlns:svg="http://www.w3.org/2000/svg">
  <defs
     id="defs1" />
  <sodipodi:namedview
     id="namedview1"
     pagecolor="#ffffff"
     bordercolor="#000000"
     borderopacity="0.25"
     inkscape:showpageshadow="2"
     inkscape:pageopacity="0.0"
     inkscape:pagecheckerboard="0"
     inkscape:deskcolor="#d1d1d1"
     inkscape:zoom="4.3722222"
     inkscape:cx="90"
     inkscape:cy="90"
     inkscape:window-width="1920"
     inkscape:window-height="1001"
     inkscape:window-x="-9"
     inkscape:window-y="-9"
     inkscape:window-maximized="1"
     inkscape:current-layer="g1" />
  <g
     inkscape:groupmode="layer"
     inkscape:label="Image"
     id="g1">
    <path
       d="M 90,0 A 90,90 0 0 0 0,90 90,90 0 0 0 90,180 90,90 0 0 0 180,90 90,90 0 0 0 90,0 Z m 0,10 A 80,80 0 0 1 170,90 80,80 0 0 1 90,170 80,80 0 0 1 10,90 80,80 0 0 1 90,10 Z"
       style="fill:#ffe700;stroke-width:73.1397"
       id="path2" />
    <path
       d="M 90.000002,15 40,64.41177 50.714285,75 90.000002,36.176475 129.28571,75 140,64.41177 Z"
       style="fill:#ffe700;stroke-width:53.9413"
       id="path3" />
    <path
       d="M 90.00001,55 40,104.41177 50.714287,115 90.00001,76.176476 129.28571,115 140,104.41177 Z"
       style="fill:#ffe700;stroke-width:53.9413"
       id="path3-4" />
    <path
       d="M 90.00001,95 40,144.4118 50.714287,155 90.00001,116.17655 129.28571,155 140,144.4118 Z"
       style="fill:#ffe700;stroke-width:53.9415"
       id="path3-4-4" />
    <path
       style="fill:#22e33b;stroke-width:8.68734"
       d="m 45.400254,109.56901 -5.260483,-5.12371 2.172808,-2.15649 C 45.134066,99.488509 84.456146,60.684765 87.612066,57.586451 l 2.415115,-2.371032 24.802169,24.496636 c 13.64119,13.473149 24.8323,24.580685 24.86913,24.683405 0.0751,0.20937 -10.16271,10.19158 -10.45251,10.19158 -0.10168,0 -8.96453,-8.67241 -19.69522,-19.272015 L 90.040405,76.043008 87.046886,78.960977 c -1.646435,1.604884 -10.436844,10.277291 -19.53424,19.272017 -9.097397,8.994726 -16.610739,16.377826 -16.696316,16.406886 -0.08558,0.0291 -2.52281,-2.25283 -5.416076,-5.07087 z"
       id="path1" />
    <path
       style="fill:#22e33b;stroke-width:8.68734"
       d="m 45.422471,69.620706 c -2.851668,-2.790196 -5.155405,-5.145193 -5.119417,-5.233327 0.03599,-0.08813 9.843071,-9.814645 21.793515,-21.614471 11.950445,-11.799827 23.120472,-22.83036 24.822279,-24.512297 l 3.0942,-3.058067 24.809232,24.503086 c 13.64508,13.476699 24.83844,24.578632 24.87414,24.670967 0.0876,0.226432 -10.24407,10.339008 -10.475,10.252917 -0.10016,-0.03734 -8.92646,-8.701584 -19.614,-19.253882 C 98.919869,44.823335 90.084561,36.203143 89.973398,36.219652 c -0.111163,0.01651 -8.9344,8.650206 -19.607192,19.185995 -10.672792,10.535789 -19.484684,19.185717 -19.581981,19.22206 -0.0973,0.03635 -2.510087,-2.216804 -5.361754,-5.007001 z"
       id="path4" />
    <path
       style="fill:#22e33b;stroke-width:8.68734"
       d="m 84.510801,179.74991 c -0.503177,-0.0496 -2.098476,-0.2015 -3.545108,-0.33759 C 59.887457,177.42932 38.589834,166.86307 24.293811,151.29606 10.498395,136.27417 2.2112794,117.71518 0.46366273,97.928469 0.13052086,94.1566 0.13052086,85.8434 0.46366273,82.071531 2.6105885,57.763798 14.739365,35.183136 33.911103,19.801006 47.236028,9.1099695 63.47276,2.477069 81.080051,0.53192324 84.676202,0.13464249 95.325859,0.13479249 98.919949,0.53217448 123.59459,3.2603363 145.25143,15.115373 160.45613,34.217302 c 10.70351,13.447018 17.56024,30.645602 19.08071,47.859743 0.3277,3.710113 0.33121,12.215097 0.007,15.813679 -2.53606,28.108236 -18.17515,53.538936 -42.05596,68.387116 -11.26534,7.00436 -23.86233,11.40632 -37.30952,13.03765 -2.909389,0.35294 -13.510708,0.6469 -15.667089,0.43442 z m 12.350698,-9.93528 c 15.389661,-1.29794 30.097821,-7.09858 42.655651,-16.82261 3.1519,-2.44064 10.45031,-9.64526 12.83936,-12.67436 9.81141,-12.43996 15.39588,-25.83148 17.26346,-41.397711 0.54457,-4.538939 0.54457,-13.300959 0,-17.839898 -1.19181,-9.933699 -3.72593,-18.411194 -8.11359,-27.142754 C 157.42224,45.809769 152.6123,39.265916 145.89192,32.694077 133.26433,20.34559 118.11621,13.020793 99.949174,10.478682 c -4.075358,-0.5702639 -15.82299,-0.5702639 -19.898348,0 -15.172239,2.123048 -27.67605,7.347996 -39.56798,16.534208 -3.126826,2.415392 -10.423251,9.610466 -12.847913,12.669448 -9.731649,12.277564 -15.422471,25.9276 -17.259077,41.397713 -0.5366882,4.520637 -0.5373236,13.309934 -0.0013,17.839898 2.099578,17.743301 9.692115,33.935141 21.760123,46.405631 6.458644,6.67405 12.948429,11.57994 20.711984,15.65705 9.018069,4.73592 19.915681,7.95329 29.834394,8.80819 3.272643,0.28207 10.965134,0.29498 14.180432,0.0238 z"
       id="path5" />
    <path
       style="fill:#22e33b;stroke-width:8.68734"
       d="m 45.400254,149.57239 -5.260483,-5.12892 3.202033,-3.17212 c 6.936061,-6.87129 44.024874,-43.45957 45.325164,-44.713489 l 1.382156,-1.332863 24.791196,24.495552 c 13.63515,13.47255 24.81847,24.57506 24.8518,24.67225 0.0333,0.0972 -2.31038,2.47272 -5.20826,5.27899 l -5.26887,5.10229 -16.81208,-16.66277 c -9.24665,-9.16452 -18.087043,-17.87443 -19.645321,-19.35535 l -2.833232,-2.69258 -19.488532,19.27454 c -10.718691,10.60099 -19.553005,19.29452 -19.631809,19.31896 -0.0788,0.0244 -2.510496,-2.26359 -5.403762,-5.08449 z"
       id="path6" />
  </g>
</svg>
