<?xml version="1.0" encoding="UTF-8" standalone="no"?>
<!-- Created with Inkscape (http://www.inkscape.org/) -->

<svg
   version="1.1"
   id="svg1"
   width="180"
   height="180"
   viewBox="0 0 180 180"
   sodipodi:docname="rand_acceleration.svg"
   inkscape:export-filename="rand_acceleration.png"
   inkscape:export-xdpi="960"
   inkscape:export-ydpi="960"
   inkscape:version="1.3.2 (091e20e, 2023-11-25, custom)"
   xmlns:inkscape="http://www.inkscape.org/namespaces/inkscape"
   xmlns:sodipodi="http://sodipodi.sourceforge.net/DTD/sodipodi-0.dtd"
   xmlns="http://www.w3.org/2000/svg"
   xmlns:svg="http://www.w3.org/2000/svg">
  <defs
     id="defs1">
    <rect
       x="60.609913"
       y="50.546379"
       width="56.493011"
       height="103.37992"
       id="rect1" />
  </defs>
  <sodipodi:namedview
     id="namedview1"
     pagecolor="#ffffff"
     bordercolor="#000000"
     borderopacity="0.25"
     inkscape:showpageshadow="2"
     inkscape:pageopacity="0.0"
     inkscape:pagecheckerboard="0"
     inkscape:deskcolor="#d1d1d1"
     inkscape:zoom="4.3722222"
     inkscape:cx="90"
     inkscape:cy="90"
     inkscape:window-width="1920"
     inkscape:window-height="1001"
     inkscape:window-x="-9"
     inkscape:window-y="-9"
     inkscape:window-maximized="1"
     inkscape:current-layer="g1" />
  <g
     inkscape:groupmode="layer"
     inkscape:label="Image"
     id="g1">
    <text
       xml:space="preserve"
       id="text1"
       style="font-size:96px;line-height:0;white-space:pre;shape-inside:url(#rect1);fill:#ffe700;stroke-width:37.983"
       transform="matrix(1.1360947,0,0,0.98310292,-9.8787,48.189593)"><tspan
         x="60.609375"
         y="78.130585"
         id="tspan1">?</tspan></text>
    <path
       d="M 90,0 A 90,90 0 0 0 0,90 90,90 0 0 0 90,180 90,90 0 0 0 180,90 90,90 0 0 0 90,0 Z m 0,10 A 80,80 0 0 1 170,90 80,80 0 0 1 90,170 80,80 0 0 1 10,90 80,80 0 0 1 90,10 Z"
       style="fill:#ffe700;stroke-width:38.6709"
       id="path9" />
    <path
       d="M 132.5,66.428571 155.14705,90 132.5,113.57143 138.67647,120 167.5,90 138.67647,60 Z"
       style="fill:#ffe700;stroke-width:31.9121"
       id="path4" />
    <path
       d="M 113.57143,132.5 90,155.14706 66.428571,132.5 60,138.67648 90,167.5 120,138.67648 Z"
       style="fill:#ffe700;stroke-width:31.9121"
       id="path4-6" />
    <path
       d="M 113.57142,47.5 90,24.85294 66.428571,47.5 60,41.32352 90,12.5 120,41.32352 Z"
       style="fill:#ffe700;stroke-width:31.9121"
       id="path4-6-0" />
    <path
       d="M 47.5,66.428571 24.852941,89.999996 47.5,113.57143 41.32353,120 12.5,89.999996 41.32353,60 Z"
       style="fill:#ffe700;stroke-width:31.912"
       id="path4-0" />
    <path
       style="fill:#22e33b;stroke-width:8.68734"
       d="M 27.083337,104.99099 C 19.298558,96.8828 12.901264,90.165037 12.867129,90.062632 12.81745,89.913595 34.769466,66.861347 39.997354,61.57264 l 1.309208,-1.324437 2.847353,2.876567 c 1.566046,1.582112 2.878758,3.017489 2.917142,3.189726 0.03838,0.172238 -4.95336,5.53788 -11.092758,11.923648 C 29.8389,84.623912 24.815756,89.916747 24.815756,90 c 0,0.08325 5.023144,5.376088 11.162543,11.76186 6.139398,6.38577 11.131139,11.75141 11.092758,11.92364 -0.05454,0.24472 -5.610072,6.04766 -5.789825,6.04766 -0.02406,0 -6.413115,-6.63397 -14.197895,-14.74217 z"
       id="path1" />
    <path
       style="fill:#22e33b;stroke-width:8.68734"
       d="m 63.274358,44.290279 -3.059034,-3.005568 14.875214,-14.284223 14.875214,-14.284222 1.503782,1.40582 c 0.827081,0.773201 7.535546,7.20188 14.907696,14.285953 l 13.40392,12.880132 -3.04908,2.99579 -3.04908,2.99579 -0.68197,-0.573836 c -0.37507,-0.315608 -5.64139,-5.344278 -11.70291,-11.174818 -6.061517,-5.83054 -11.145936,-10.600983 -11.298707,-10.600983 -0.152769,0 -5.314135,4.837357 -11.469704,10.749683 -6.155567,5.912325 -11.417923,10.944615 -11.694124,11.182867 l -0.502182,0.433182 z"
       id="path2" />
    <path
       style="fill:#22e33b;stroke-width:8.68734"
       d="m 135.79771,116.81435 c -1.60233,-1.6059 -2.91334,-3.04238 -2.91334,-3.19217 0,-0.1498 5.01747,-5.49073 11.14994,-11.86874 6.13246,-6.378016 11.14993,-11.667063 11.14993,-11.75344 0,-0.08638 -5.01747,-5.375424 -11.14993,-11.753436 -6.13247,-6.378013 -11.14994,-11.721862 -11.14994,-11.87522 0,-0.153359 1.31857,-1.59448 2.93016,-3.202492 l 2.93017,-2.923658 14.16195,14.749696 c 7.78908,8.112331 14.19058,14.835551 14.22556,14.940488 0.0509,0.152584 -21.89592,23.202812 -27.11964,28.483172 l -1.30151,1.31563 z"
       id="path3" />
    <path
       style="fill:#22e33b;stroke-width:8.68734"
       d="m 75.093282,152.99689 -14.875663,-14.28386 3.057887,-3.00444 3.057887,-3.00444 0.502182,0.43319 c 0.276201,0.23825 5.538557,5.27054 11.694124,11.18286 6.155569,5.91233 11.317203,10.74969 11.470301,10.74969 0.153098,0 5.314732,-4.83736 11.4703,-10.74969 6.15557,-5.91232 11.42175,-10.94807 11.70262,-11.19055 l 0.51067,-0.44087 3.045,3.01516 3.04499,3.01517 -13.40013,12.87649 c -7.370074,7.08207 -14.076117,13.50844 -14.902319,14.28082 l -1.502186,1.40433 z"
       id="path5" />
    <path
       style="fill:#22e33b;stroke-width:8.68734"
       d="m 84.510801,179.74991 c -0.503177,-0.0496 -2.098476,-0.2015 -3.545108,-0.33759 C 59.887457,177.42932 38.589834,166.86307 24.293811,151.29606 10.498395,136.27417 2.2112794,117.71518 0.46366273,97.928469 0.13052086,94.1566 0.13052086,85.8434 0.46366273,82.071531 2.6105885,57.763798 14.739365,35.183136 33.911103,19.801006 47.236028,9.1099695 63.47276,2.477069 81.080051,0.53192324 84.676202,0.13464249 95.325859,0.13479249 98.919949,0.53217448 123.59459,3.2603363 145.25143,15.115373 160.45613,34.217302 c 10.70351,13.447018 17.56024,30.645602 19.08071,47.859743 0.3277,3.710113 0.33121,12.215097 0.007,15.813679 -2.53606,28.108236 -18.17515,53.538936 -42.05596,68.387116 -11.26534,7.00436 -23.86233,11.40632 -37.30952,13.03765 -2.909389,0.35294 -13.510708,0.6469 -15.667089,0.43442 z m 12.350698,-9.93528 c 15.389661,-1.29794 30.097821,-7.09858 42.655651,-16.82261 3.1519,-2.44064 10.45031,-9.64526 12.83936,-12.67436 9.81141,-12.43996 15.39588,-25.83148 17.26346,-41.397711 0.54457,-4.538939 0.54457,-13.300959 0,-17.839898 -1.19181,-9.933699 -3.72593,-18.411194 -8.11359,-27.142754 C 157.42224,45.809769 152.6123,39.265916 145.89192,32.694077 133.26433,20.34559 118.11621,13.020793 99.949174,10.478682 c -4.075358,-0.5702639 -15.82299,-0.5702639 -19.898348,0 -15.172239,2.123048 -27.67605,7.347996 -39.56798,16.534208 -3.126826,2.415392 -10.423251,9.610466 -12.847913,12.669448 -9.731649,12.277564 -15.422471,25.9276 -17.259077,41.397713 -0.5366882,4.520637 -0.5373236,13.309934 -0.0013,17.839898 2.099578,17.743301 9.692115,33.935141 21.760123,46.405631 6.458644,6.67405 12.948429,11.57994 20.711984,15.65705 9.018069,4.73592 19.915681,7.95329 29.834394,8.80819 3.272643,0.28207 10.965134,0.29498 14.180432,0.0238 z"
       id="path6" />
    <path
       style="fill:#22e33b;stroke-width:8.68734"
       d="m 81.198375,99.54892 0.004,-6.918679 4.95923,-2.515883 c 6.359025,-3.226016 8.526828,-4.657977 11.402881,-7.532263 2.555294,-2.553718 3.316174,-3.817203 3.868234,-6.423442 1.37564,-6.494318 -1.521439,-10.854132 -8.459369,-12.7305 -1.564929,-0.423236 -2.458644,-0.496399 -6.175349,-0.505536 -3.645262,-0.009 -4.769515,0.07393 -6.975858,0.514327 -3.099129,0.618603 -7.349316,1.995603 -10.038013,3.252174 -1.055215,0.493158 -1.955787,0.896651 -2.001271,0.896651 -0.04548,0 -0.0827,-2.096367 -0.0827,-4.658593 v -4.658592 l 2.115629,-0.58466 c 7.875367,-2.176381 18.149908,-3.079971 24.301144,-2.137152 9.514287,1.458284 16.237997,6.448823 17.839447,13.240972 0.44959,1.906797 0.43618,5.729694 -0.0273,7.787182 -1.54311,6.850086 -7.74191,12.734965 -19.58919,18.597158 l -1.768055,0.874857 v 5.210329 5.21033 H 85.8831 81.194409 Z"
       id="path7" />
    <path
       style="fill:#22e33b;stroke-width:8.68734"
       d="m 80.736976,120.1906 v -4.80305 h 5.260483 5.260483 v 4.80305 4.80305 h -5.260483 -5.260483 z"
       id="path8" />
  </g>
</svg>
